<svg width="24" height="24" viewBox="0 0 24 24" fill="none" xmlns="http://www.w3.org/2000/svg">
<circle cx="12" cy="12" r="12" fill="#F8593B"/>
<g clip-path="url(#clip0_1_354)">
<path d="M17.2201 13.1968C17.0597 11.1089 16.0876 9.80044 15.23 8.64582C14.4359 7.5769 13.75 6.65383 13.75 5.29217C13.75 5.18279 13.6888 5.08282 13.5916 5.0327C13.4942 4.98228 13.3771 4.99054 13.2886 5.0549C12.0006 5.97655 10.9259 7.52992 10.5505 9.01206C10.2899 10.0439 10.2554 11.204 10.2506 11.9701C9.06112 11.7161 8.79168 9.93686 8.78883 9.91747C8.77543 9.82519 8.71905 9.74488 8.63702 9.70102C8.55414 9.65773 8.45671 9.65459 8.37269 9.69618C8.31032 9.72637 6.84171 10.4726 6.75626 13.452C6.75027 13.5511 6.75 13.6505 6.75 13.7499C6.75 16.6444 9.10525 18.9996 12 18.9996C12.004 18.9998 12.0083 19.0004 12.0117 18.9996C12.0128 18.9996 12.0139 18.9996 12.0154 18.9996C14.903 18.9913 17.25 16.6393 17.25 13.7499C17.25 13.6044 17.2201 13.1968 17.2201 13.1968ZM12 18.4163C11.035 18.4163 10.25 17.5801 10.25 16.5522C10.25 16.5172 10.2497 16.4818 10.2523 16.4385C10.2639 16.0051 10.3463 15.7091 10.4366 15.5123C10.6058 15.8758 10.9082 16.2098 11.3996 16.2098C11.5608 16.2098 11.6913 16.0794 11.6913 15.9182C11.6913 15.503 11.6998 15.0239 11.8032 14.5915C11.8952 14.2082 12.1151 13.8003 12.3937 13.4734C12.5176 13.8977 12.7591 14.2412 12.995 14.5764C13.3325 15.056 13.6814 15.5519 13.7426 16.3975C13.7463 16.4476 13.7501 16.4981 13.7501 16.5522C13.75 17.58 12.965 18.4163 12 18.4163Z" fill="white"/>
</g>
<defs>
<clipPath id="clip0_1_354">
<rect width="14" height="14" fill="white" transform="translate(5 5)"/>
</clipPath>
</defs>
</svg>
