<svg width="8" height="18" viewBox="0 0 8 18" fill="none" xmlns="http://www.w3.org/2000/svg">
<path d="M7.73834 16.0575L7.48683 17.0856C6.73232 17.3834 6.12962 17.6101 5.68082 17.7659C5.23153 17.9222 4.70949 18 4.11469 18C3.20127 18 2.4908 17.7762 1.98409 17.3318C1.47737 16.8856 1.22393 16.3201 1.22393 15.6342C1.22393 15.3687 1.24232 15.0955 1.28056 14.8172C1.31911 14.5386 1.38041 14.2249 1.4643 13.8741L2.40724 10.5367C2.49113 10.2171 2.56243 9.9143 2.61954 9.62795C2.67746 9.34338 2.70537 9.08155 2.70537 8.84585C2.70537 8.41964 2.61712 8.12151 2.44144 7.9539C2.26576 7.78677 1.93053 7.70191 1.43285 7.70191C1.18909 7.70191 0.93855 7.74095 0.683175 7.81645C0.42667 7.89227 0.207431 7.96551 0.0233612 8.03359L0.27551 7.00467C0.893218 6.75317 1.48366 6.5378 2.04846 6.35905C2.61325 6.17982 3.14691 6.09013 3.65169 6.09013C4.55881 6.09013 5.25879 6.30936 5.75035 6.74784C6.2419 7.18664 6.4876 7.75547 6.4876 8.45642C6.4876 8.60145 6.47146 8.85699 6.43678 9.22222C6.4029 9.58827 6.33982 9.92366 6.24787 10.2287L5.30897 13.5528C5.23202 13.8198 5.16281 14.125 5.10263 14.4685C5.04052 14.8097 5.01084 15.0704 5.01084 15.2452C5.01084 15.6866 5.10925 15.988 5.30655 16.1482C5.5053 16.3084 5.84763 16.3881 6.33385 16.3881C6.56213 16.3881 6.82186 16.3476 7.11047 16.268C7.39827 16.1885 7.60815 16.1186 7.73834 16.0575ZM7.97645 2.10205C7.97645 2.6812 7.75818 3.17582 7.31954 3.58251C6.88203 3.99066 6.35483 4.1949 5.73809 4.1949C5.11941 4.1949 4.59092 3.99066 4.1484 3.58251C3.7067 3.17565 3.48536 2.6812 3.48536 2.10205C3.48536 1.52402 3.7067 1.0286 4.1484 0.61674C4.59011 0.205526 5.11957 0 5.73809 0C6.35467 0 6.88203 0.20601 7.31954 0.61674C7.7585 1.0286 7.97645 1.52418 7.97645 2.10205Z" fill="#374A59"/>
</svg>
