<svg width="24" height="24" viewBox="0 0 24 24" fill="none" xmlns="http://www.w3.org/2000/svg">
<circle cx="12" cy="12" r="12" fill="#2ECC71"/>
<path d="M15.5038 5C15.5038 5 14.3519 6.11753 13.1062 6.56808C3.88101 9.90485 7.77166 16.4073 7.89858 16.4287C7.89858 16.4287 8.41589 15.5279 9.11468 15.014C13.549 11.7542 14.4502 8.00198 14.4502 8.00198C14.4502 8.00198 13.4552 12.5171 9.51021 15.3266C8.63891 15.9467 8.04894 17.4738 7.7992 19C7.7992 19 8.41683 18.7505 8.68241 18.6829C8.78598 18.007 9.0025 17.3599 9.36858 16.7818C14.8821 17.4382 16.6879 12.9955 16.9238 11.4464C17.4806 7.7876 15.5038 5 15.5038 5Z" fill="white"/>
</svg>
