<svg width="24" height="24" viewBox="0 0 24 24" fill="none" xmlns="http://www.w3.org/2000/svg">
<circle cx="12" cy="12" r="12" fill="#FFC22B"/>
<g clip-path="url(#clip0_1_318)">
<path d="M15.8572 8.14282C15.936 8.13898 16.015 8.13705 16.0943 8.13705C16.6149 8.13705 17.1227 8.22015 17.6026 8.37994C18.1051 7.705 18.3769 6.89003 18.3769 6.03329C18.3769 5.80685 18.1933 5.62314 17.9667 5.62314C17.0885 5.62314 16.2766 5.91206 15.6208 6.39977C15.7801 6.87903 15.8629 7.38606 15.8629 7.90581C15.8629 7.98495 15.861 8.064 15.8572 8.14282Z" fill="white"/>
<path d="M8.99828 14.9965C8.9015 14.8995 8.81018 14.7993 8.72356 14.6964L5.12016 18.2999C4.95995 18.46 4.95995 18.7197 5.12016 18.8798C5.20027 18.9599 5.30516 19 5.41016 19C5.51515 19 5.62004 18.9599 5.70015 18.8798L9.30344 15.2766C9.1993 15.1888 9.09825 15.0965 9.00095 14.9991C9.00009 14.9982 8.99913 14.9973 8.99828 14.9965Z" fill="white"/>
<path d="M13.8805 8.71928C13.9337 8.95587 13.968 9.19513 13.9848 9.43503L15.0108 8.40921C15.0318 8.24344 15.0426 8.07542 15.0426 7.9057C15.0426 6.8535 14.6329 5.86421 13.8889 5.12016C13.8118 5.04315 13.7076 5 13.5988 5C13.49 5 13.3857 5.04315 13.3088 5.12016C12.9612 5.46773 12.6867 5.8688 12.4926 6.30481C12.5317 6.33546 12.5694 6.36826 12.605 6.40393C13.2422 7.04117 13.6832 7.84183 13.8805 8.71928Z" fill="white"/>
<path d="M18.8799 10.1111C18.1358 9.3671 17.1465 8.95737 16.0943 8.95737C15.9246 8.95737 15.7565 8.96815 15.5908 8.9893L14.5672 10.0128C15.7117 10.0922 16.7769 10.5759 17.5961 11.395C17.6318 11.4307 17.6645 11.4683 17.6952 11.5073C18.1289 11.3144 18.528 11.0417 18.8743 10.6967C18.9142 10.6582 18.9467 10.6115 18.9688 10.5582C19.0323 10.4049 18.9971 10.2285 18.8799 10.1111Z" fill="white"/>
<path d="M12.1233 11.2964L13.1437 10.2761C13.2942 9.10594 12.9218 7.88081 12.025 6.98402C11.948 6.90712 11.8436 6.86386 11.7349 6.86386C11.6262 6.86386 11.5217 6.90712 11.4448 6.98413C11.0924 7.3365 10.8211 7.73961 10.6305 8.17017C10.6689 8.20039 10.706 8.23276 10.741 8.2679C11.5602 9.08693 12.0438 10.1519 12.1233 11.2964Z" fill="white"/>
<path d="M14.2305 10.8212C14.0607 10.8212 13.8926 10.832 13.7268 10.8532L12.7031 11.8766C13.8477 11.9561 14.9129 12.4397 15.732 13.2588C15.7677 13.2944 15.8007 13.3322 15.8313 13.3712C16.2672 13.1773 16.6683 12.9027 17.016 12.5551C17.0929 12.4782 17.1361 12.3738 17.1361 12.2651C17.1361 12.1563 17.0929 12.052 17.016 11.9751C16.2719 11.231 15.2827 10.8212 14.2305 10.8212Z" fill="white"/>
<path d="M11.315 11.6335C11.315 10.5812 10.9051 9.59193 10.1611 8.84799C10.081 8.76788 9.97598 8.72783 9.87109 8.72783C9.76609 8.72783 9.6611 8.76788 9.5811 8.84799C8.1431 10.2859 8.05145 12.5681 9.30595 14.1138L11.283 12.1367C11.3041 11.9711 11.315 11.8031 11.315 11.6335Z" fill="white"/>
<path d="M12.3666 12.6851C12.1967 12.6851 12.0285 12.696 11.8627 12.717L9.88577 14.694C10.5853 15.2632 11.452 15.5727 12.3665 15.5728H12.3668C13.4188 15.5728 14.408 15.1631 15.152 14.4191C15.229 14.3422 15.2722 14.2377 15.2722 14.129C15.2722 14.0202 15.229 13.9159 15.152 13.839C14.408 13.0948 13.4188 12.6851 12.3666 12.6851Z" fill="white"/>
</g>
<defs>
<clipPath id="clip0_1_318">
<rect width="14" height="14" fill="white" transform="translate(5 5)"/>
</clipPath>
</defs>
</svg>
